<svg xmlns="http://www.w3.org/2000/svg" width="1920" height="1080" viewBox="0 0 1920 1080"><rect width="100%" height="100%" fill="#DDDDDD"/><path fill="#999999" d="M520.02 587.28q2.64 0 4.68 2.04l12.72 13.8q-10.56 13.08-25.98 20.04t-37.02 6.96q-19.32 0-34.74-6.6t-26.34-18.36-16.74-28.08-5.82-35.64q0-19.56 6.24-35.82t17.58-28.02 27.06-18.3 34.8-6.54q18.96 0 33.66 6.24t25.02 16.32l-10.8 15q-.96 1.44-2.46 2.52t-4.14 1.08q-1.8 0-3.72-1.02t-4.2-2.52-5.28-3.3-6.96-3.3-9.18-2.52-12.06-1.02q-11.64 0-21.3 4.14t-16.62 12-10.8 19.2-3.84 25.86q0 14.64 4.14 26.04t11.22 19.2 16.68 11.94 20.64 4.14q6.6 0 11.94-.72t9.84-2.28 8.52-4.02 7.98-6.06q1.2-1.08 2.52-1.74t2.76-.66m64.56-137.4v68.4q7.2-6.72 15.84-10.92t20.28-4.2q10.08 0 17.88 3.42t13.02 9.6 7.92 14.76 2.7 18.9v78.36h-29.64v-78.36q0-11.28-5.16-17.46t-15.72-6.18q-7.68 0-14.4 3.48t-12.72 9.48v89.04h-29.64V449.88zM755.34 596.4v-20.76q-12.84.6-21.6 2.22T719.7 582t-7.56 5.88-2.28 7.32q0 7.8 4.62 11.16t12.06 3.36q9.12 0 15.78-3.3t13.02-10.02m-62.64-64.68-5.28-9.48q21.24-19.44 51.12-19.44 10.8 0 19.32 3.54t14.4 9.84 8.94 15.06 3.06 19.2v77.76h-13.44q-4.2 0-6.48-1.26t-3.6-5.1l-2.64-8.88q-4.68 4.2-9.12 7.38t-9.24 5.34-10.26 3.3-12.06 1.14q-7.8 0-14.4-2.1t-11.4-6.3-7.44-10.44-2.64-14.52q0-4.68 1.56-9.3t5.1-8.82 9.18-7.92 13.86-6.48 19.14-4.5 24.96-2.1v-7.2q0-12.36-5.28-18.3t-15.24-5.94q-7.2 0-11.94 1.68t-8.34 3.78-6.54 3.78-6.54 1.68q-3.12 0-5.28-1.62t-3.48-3.78m145.56-19.2 1.8 13.92q5.76-11.04 13.68-17.34t18.72-6.3q8.52 0 13.68 3.72l-1.92 22.2q-.6 2.16-1.74 3.06t-3.06.9q-1.8 0-5.34-.6t-6.9-.6q-4.92 0-8.76 1.44t-6.9 4.14-5.4 6.54-4.38 8.76v75.84H812.1V505.08h17.4q4.56 0 6.36 1.62t2.4 5.82m128.4 83.88v-20.76q-12.84.6-21.6 2.22T931.02 582t-7.56 5.88-2.28 7.32q0 7.8 4.62 11.16t12.06 3.36q9.12 0 15.78-3.3t13.02-10.02m-62.64-64.68-5.28-9.48q21.24-19.44 51.12-19.44 10.8 0 19.32 3.54t14.4 9.84 8.94 15.06 3.06 19.2v77.76h-13.44q-4.2 0-6.48-1.26t-3.6-5.1l-2.64-8.88q-4.68 4.2-9.12 7.38t-9.24 5.34-10.26 3.3-12.06 1.14q-7.8 0-14.4-2.1t-11.4-6.3-7.44-10.44-2.64-14.52q0-4.68 1.56-9.3t5.1-8.82 9.18-7.92 13.86-6.48 19.14-4.5 24.96-2.1v-7.2q0-12.36-5.28-18.3t-15.24-5.94q-7.2 0-11.94 1.68t-8.34 3.78-6.54 3.78-6.54 1.68q-3.12 0-5.28-1.62t-3.48-3.78m215.4-11.4-7.8 10.8q-1.32 1.68-2.58 2.64t-3.66.96q-2.28 0-4.44-1.38t-5.16-3.12-7.14-3.12-10.26-1.38q-7.8 0-13.68 2.82t-9.78 8.1-5.82 12.78-1.92 16.98q0 9.84 2.1 17.52t6.06 12.9 9.6 7.92 12.72 2.7 11.46-1.74 7.38-3.84 5.22-3.84 4.98-1.74q3.6 0 5.4 2.76l8.52 10.8q-4.92 5.76-10.68 9.66t-11.94 6.24-12.72 3.3-13.02.96q-11.4 0-21.48-4.26t-17.64-12.42-11.94-19.98-4.38-26.94q0-13.56 3.9-25.14t11.46-20.04 18.72-13.26 25.68-4.8q13.8 0 24.18 4.44t18.66 12.72m60.72 109.8q-16.08 0-24.66-9.06t-8.58-25.02v-68.76h-12.6q-2.4 0-4.08-1.56t-1.68-4.68v-11.76l19.8-3.24 6.24-33.6q.6-2.4 2.28-3.72t4.32-1.32h15.36v38.76h32.88v21.12h-32.88V594q0 5.76 2.82 9t7.74 3.24q2.76 0 4.62-.66t3.24-1.38 2.46-1.38 2.16-.66q1.32 0 2.16.66t1.8 1.98l8.88 14.4q-6.48 5.4-14.88 8.16t-17.4 2.76m71.64-77.64h55.92q0-5.76-1.62-10.86t-4.86-8.94-8.22-6.06-11.58-2.22q-12.84 0-20.22 7.32t-9.42 20.76m75.6 17.88h-76.2q.72 9.48 3.36 16.38t6.96 11.4 10.26 6.72 13.14 2.22 12.42-1.68 9.12-3.72 6.84-3.72 5.7-1.68q3.72 0 5.52 2.76l8.52 10.8q-4.92 5.76-11.04 9.66t-12.78 6.24-13.56 3.3-13.38.96q-12.84 0-23.88-4.26t-19.2-12.6-12.84-20.64-4.68-28.5q0-12.6 4.08-23.7t11.7-19.32 18.6-13.02 24.78-4.8q11.64 0 21.48 3.72t16.92 10.86 11.1 17.52 4.02 23.7q0 6.72-1.44 9.06t-5.52 2.34m55.32-57.84 1.8 13.92q5.76-11.04 13.68-17.34t18.72-6.3q8.52 0 13.68 3.72l-1.92 22.2q-.6 2.16-1.74 3.06t-3.06.9q-1.8 0-5.34-.6t-6.9-.6q-4.92 0-8.76 1.44t-6.9 4.14-5.4 6.54-4.38 8.76v75.84h-29.64V505.08h17.4q4.56 0 6.36 1.62t2.4 5.82m145.2 5.88-6.72 10.68q-1.2 1.92-2.52 2.7t-3.36.78q-2.16 0-4.62-1.2t-5.7-2.7-7.38-2.7-9.78-1.2q-8.76 0-13.74 3.72t-4.98 9.72q0 3.96 2.58 6.66t6.84 4.74 9.66 3.66 10.98 3.54 10.98 4.38 9.66 6.24 6.84 9.06 2.58 12.72q0 8.88-3.18 16.38t-9.42 12.96-15.42 8.52-21.18 3.06q-6.36 0-12.42-1.14t-11.64-3.18-10.32-4.8-8.34-6l6.84-11.28q1.32-2.04 3.12-3.12t4.56-1.08 5.22 1.56 5.7 3.36 7.62 3.36 11.1 1.56q5.28 0 9.06-1.26t6.24-3.3 3.6-4.74 1.14-5.58q0-4.32-2.58-7.08t-6.84-4.8-9.72-3.66-11.16-3.54-11.16-4.5-9.72-6.54-6.84-9.72-2.58-13.92q0-7.56 3-14.4t8.82-11.94 14.52-8.16 20.1-3.06q12.72 0 23.16 4.2t17.4 11.04"/></svg>